<svg width="1280" height="720" xmlns="http://www.w3.org/2000/svg" xmlns:xlink="http://www.w3.org/1999/xlink" overflow="hidden"><defs><filter id="fx0" x="-10%" y="-10%" width="120%" height="120%" filterUnits="userSpaceOnUse" primitiveUnits="userSpaceOnUse"><feComponentTransfer color-interpolation-filters="sRGB"><feFuncR type="discrete" tableValues="0 0"/><feFuncG type="discrete" tableValues="0 0"/><feFuncB type="discrete" tableValues="0 0"/><feFuncA type="linear" slope="0.631373" intercept="0"/></feComponentTransfer><feGaussianBlur stdDeviation="2 2"/></filter><clipPath id="clip1"><rect x="0" y="0" width="1280" height="720"/></clipPath><clipPath id="clip2"><rect x="-2" y="-2" width="585" height="585"/></clipPath><clipPath id="clip3"><rect x="0" y="0" width="582" height="582"/></clipPath><linearGradient x1="640" y1="76" x2="640" y2="644" gradientUnits="userSpaceOnUse" spreadMethod="reflect" id="fill4"><stop offset="0" stop-color="#71A6DB"/><stop offset="0.5" stop-color="#559BDB"/><stop offset="1" stop-color="#438AC9"/></linearGradient></defs><g clip-path="url(#clip1)"><rect x="0" y="0" width="1280" height="720" fill="#FFFFFF"/><text font-family="Calibri,Calibri_MSFontService,sans-serif" font-weight="700" font-size="88" transform="matrix(0.438371 -0.898794 0.898794 0.438371 346.439 541)">DEMARCHE</text><g clip-path="url(#clip2)" filter="url(#fx0)" transform="translate(349 71)"><g clip-path="url(#clip3)"><path d="M7 575 291 7 575 575Z" fill="#FF0000" fill-rule="evenodd"/></g></g><path d="M356 644 640 76 924 644Z" fill="url(#fill4)" fill-rule="evenodd"/><path d="M640.5 153.334C640.5 144.037 648.037 136.5 657.334 136.5L993.666 136.5C1002.96 136.5 1010.5 144.037 1010.5 153.334L1010.5 220.666C1010.5 229.963 1002.96 237.5 993.666 237.5L657.334 237.5C648.037 237.5 640.5 229.963 640.5 220.666Z" stroke="#5B9BD5" stroke-width="0.666667" stroke-miterlimit="8" fill="#FFFFFF" fill-rule="evenodd" fill-opacity="0.901961"/><text font-family="Calibri,Calibri_MSFontService,sans-serif" font-weight="400" font-size="41" transform="translate(763.412 198)">Culture</text><path d="M640.5 267.334C640.5 258.037 648.037 250.5 657.334 250.5L993.666 250.5C1002.96 250.5 1010.5 258.037 1010.5 267.334L1010.5 334.666C1010.5 343.963 1002.96 351.5 993.666 351.5L657.334 351.5C648.037 351.5 640.5 343.963 640.5 334.666Z" stroke="#52CAB8" stroke-width="0.666667" stroke-miterlimit="8" fill="#FFFFFF" fill-rule="evenodd" fill-opacity="0.901961"/><text font-family="Calibri,Calibri_MSFontService,sans-serif" font-weight="400" font-size="41" transform="translate(748.806 312)">Principes</text><path d="M640.5 380.334C640.5 371.037 648.037 363.5 657.334 363.5L993.666 363.5C1002.96 363.5 1010.5 371.037 1010.5 380.334L1010.5 447.666C1010.5 456.963 1002.96 464.5 993.666 464.5L657.334 464.5C648.037 464.5 640.5 456.963 640.5 447.666Z" stroke="#49BF64" stroke-width="0.666667" stroke-miterlimit="8" fill="#FFFFFF" fill-rule="evenodd" fill-opacity="0.901961"/><text font-family="Calibri,Calibri_MSFontService,sans-serif" font-weight="400" font-size="41" transform="translate(658.332 426)">Process / Méthodes</text><path d="M640.5 494.334C640.5 485.037 648.037 477.5 657.334 477.5L993.666 477.5C1002.96 477.5 1010.5 485.037 1010.5 494.334L1010.5 561.666C1010.5 570.963 1002.96 578.5 993.666 578.5L657.334 578.5C648.037 578.5 640.5 570.963 640.5 561.666Z" stroke="#70AD47" stroke-width="0.666667" stroke-miterlimit="8" fill="#FFFFFF" fill-rule="evenodd" fill-opacity="0.901961"/><text font-family="Calibri,Calibri_MSFontService,sans-serif" font-weight="400" font-size="41" transform="translate(775.889 539)">Outils</text><path d="M644 76.5001 644 627.889 637 627.889 637 76.5001ZM651 624.389 640.5 645.389 630 624.389Z"/></g></svg>